Coordinates
nRows=5
nColumns=38

# SIMM Motion File Header:
name Coordinates
datacolumns 38
datarows 5
otherdata 1
range 1.68540000000000000000 1.68940000000000000000

Units are S.I. units (second, meters, Newtons, ...)
Angles are in degrees.

endheader
time	pelvis_tilt	pelvis_list	pelvis_rotation	pelvis_tx	pelvis_ty	pelvis_tz	hip_flexion_r	hip_adduction_r	hip_rotation_r	knee_angle_r	ankle_angle_r	subtalar_angle_r	mtp_angle_r	hip_flexion_l	hip_adduction_l	hip_rotation_l	knee_angle_l	ankle_angle_l	subtalar_angle_l	mtp_angle_l	lumbar_extension	lumbar_bending	lumbar_rotation	arm_flex_r	arm_add_r	arm_rot_r	elbow_flex_r	pro_sup_r	wrist_flex_r	wrist_dev_r	arm_flex_l	arm_add_l	arm_rot_l	elbow_flex_l	pro_sup_l	wrist_flex_l	wrist_dev_l
      1.68540000000000000000	     -2.90158964405825690000	     -1.73395007093963120000	     -4.12970742713895600000	      1.07817534179861770000	      1.03664902617572640000	     -0.31389983269911498000	     25.76547357648612300000	      6.37039194476391210000	      4.39775837951249480000	    -20.00444126661792800000	    -18.31492021497972200000	      0.00000000000000000000	      0.00000000000000000000	     -3.15720357720034000000	      4.38285437058406210000	      0.73598570540017905000	    -45.69056869478315300000	    -23.10879655893235800000	      0.00000000000000000000	      0.00000000000000000000	     -6.88102531645222280000	      3.05686662125522890000	     -4.74514696339394960000	    -42.71126484292728500000	     -7.81065365608943460000	    -14.34683436416503700000	     57.84178176548822800000	     59.93251641548655300000	      0.00000000000000000000	      0.00000000000000000000	    -25.78712767544711000000	    -20.18082327163160600000	      6.77533212949302840000	    128.28095576213329000000	     86.61707433562071400000	      0.00000000000000000000	      0.00000000000000000000
      1.68639999999999990000	     -2.81577987637313360000	     -1.76189853379655740000	     -4.14657701311957890000	      1.07825937678745550000	      1.03619045065602530000	     -0.31387176297605046000	     25.68157853964760000000	      6.43217757474883460000	      4.51090531246322170000	    -20.22565526797608400000	    -18.26051402380666700000	      0.00000000000000000257	     -0.00000000000000001406	     -3.09683954349954730000	      4.37414686279563720000	      0.73627239331186167000	    -46.10692238620603000000	    -22.95188332715471100000	     -0.00000000000000000033	      0.00000000000000000135	     -6.96993118722044440000	      3.10619864716129520000	     -4.67515795979714440000	    -42.66246115169598600000	     -7.84778793987182510000	    -14.31612671069358100000	     57.85801559274592200000	     59.95714273807773500000	     -0.00000000000000000025	      0.00000000000000000028	    -25.86470526625275600000	    -20.17561593862001200000	      6.75787851210321740000	    128.18384060967475000000	     86.62509857319285800000	      0.00000000000000000023	      0.00000000000000000021
      1.68740000000000000000	     -2.72956585988206340000	     -1.78978164834749200000	     -4.16193107408314590000	      1.07834349678198600000	      1.03572255116955070000	     -0.31384479097007251000	     25.59613756488785400000	      6.49379993667895410000	      4.62642984925490540000	    -20.44914852887612600000	    -18.18265695363308500000	      0.00000000000000000737	     -0.00000000000000003852	     -3.03588715634905970000	      4.36454538319077920000	      0.73561937213382811000	    -46.52406871885123300000	    -22.79331031274743000000	     -0.00000000000000000168	      0.00000000000000000352	     -7.05927818468835520000	      3.15534431461945130000	     -4.60672994538922250000	    -42.61284459969007100000	     -7.88554247432322430000	    -14.28432265399155400000	     57.87446487254535300000	     59.98138039143683600000	     -0.00000000000000000078	      0.00000000000000000027	    -25.94330373131871800000	    -20.17021881383813300000	      6.73952133418661070000	    128.08566666198485000000	     86.63379117969731200000	      0.00000000000000000064	     -0.00000000000000000002
      1.68839999999999990000	     -2.64307772535587220000	     -1.81774132220422980000	     -4.17597439414671620000	      1.07842728794309430000	      1.03524553286258940000	     -0.31381889557528192000	     25.50957724855249600000	      6.55520063412425550000	      4.74250227089524130000	    -20.67484529582670700000	    -18.09536669235262400000	      0.00000000000000001458	     -0.00000000000000006573	     -2.97418107022325810000	      4.35387481501503080000	      0.73377615924001205000	    -46.94200900191227500000	    -22.63324766305925800000	     -0.00000000000000000412	      0.00000000000000000538	     -7.14898356383080810000	      3.20448440071924700000	     -4.53963986542212080000	    -42.56236168193959900000	     -7.92399475914745550000	    -14.25141736567395300000	     57.89112625049591500000	     60.00512470625685800000	     -0.00000000000000000131	      0.00000000000000000131	    -26.02282715250204200000	    -20.16453980469162800000	      6.72034930211042170000	    127.98634902185584000000	     86.64321684519264000000	      0.00000000000000000133	     -0.00000000000000000059
      1.68940000000000000000	     -2.55590129848047990000	     -1.84572854372933650000	     -4.18846955393041310000	      1.07851089170564980000	      1.03475994600036000000	     -0.31379427112771507000	     25.42136351909685700000	      6.61626582434094870000	      4.85908138995056490000	    -20.90267141657573200000	    -17.99520146891114400000	      0.00000000000000002173	     -0.00000000000000009811	     -2.91218333092705000000	      4.34216306450335750000	      0.73092491197738685000	    -47.36063314928709600000	    -22.47193950693316500000	     -0.00000000000000000734	      0.00000000000000000681	     -7.23946412410287190000	      3.25354450685099520000	     -4.47409792732668520000	    -42.51100235092884800000	     -7.96311050842205770000	    -14.21740652952913400000	     57.90808983093349100000	     60.02829805541077200000	     -0.00000000000000000114	      0.00000000000000000222	    -26.10322313277397700000	    -20.15865762647438700000	      6.70040061954105410000	    127.88597093255026000000	     86.65333051880374200000	      0.00000000000000000171	     -0.00000000000000000129
